<mxfile host="app.diagrams.net" agent="Mozilla/5.0 (Macintosh; Intel Mac OS X 10_15_7) AppleWebKit/537.36 (KHTML, like Gecko) Chrome/135.0.0.0 Safari/537.36" version="26.2.14">
  <diagram name="第 1 页" id="-JBMGHmQdBQjdZUNVx0Y">
    <mxGraphModel dx="1181" dy="663" grid="1" gridSize="10" guides="1" tooltips="1" connect="1" arrows="1" fold="1" page="1" pageScale="1" pageWidth="827" pageHeight="1169" math="0" shadow="0">
      <root>
        <mxCell id="0" />
        <mxCell id="1" parent="0" />
        <mxCell id="kgspyB9zmgdk_uMiAphP-1" value="&amp;nbsp;AXI4IOPMP" style="rounded=0;whiteSpace=wrap;html=1;verticalAlign=top;align=left;fillColor=#f5f5f5;strokeColor=#666666;fontColor=#333333;" parent="1" vertex="1">
          <mxGeometry x="320" y="200" width="280" height="280" as="geometry" />
        </mxCell>
        <mxCell id="kgspyB9zmgdk_uMiAphP-6" value="CPU" style="rounded=1;whiteSpace=wrap;html=1;fillColor=#dae8fc;strokeColor=#6c8ebf;" parent="1" vertex="1">
          <mxGeometry x="160" y="224" width="80" height="60" as="geometry" />
        </mxCell>
        <mxCell id="kgspyB9zmgdk_uMiAphP-7" style="edgeStyle=orthogonalEdgeStyle;rounded=0;orthogonalLoop=1;jettySize=auto;html=1;entryX=-0.005;entryY=0.193;entryDx=0;entryDy=0;entryPerimeter=0;" parent="1" source="kgspyB9zmgdk_uMiAphP-6" target="kgspyB9zmgdk_uMiAphP-1" edge="1">
          <mxGeometry relative="1" as="geometry" />
        </mxCell>
        <mxCell id="kgspyB9zmgdk_uMiAphP-8" value="DMA" style="rounded=1;whiteSpace=wrap;html=1;fillColor=#d5e8d4;strokeColor=#82b366;" parent="1" vertex="1">
          <mxGeometry x="160" y="380" width="80" height="60" as="geometry" />
        </mxCell>
        <mxCell id="kgspyB9zmgdk_uMiAphP-9" style="edgeStyle=orthogonalEdgeStyle;rounded=0;orthogonalLoop=1;jettySize=auto;html=1;entryX=-0.005;entryY=0.193;entryDx=0;entryDy=0;entryPerimeter=0;" parent="1" source="kgspyB9zmgdk_uMiAphP-8" edge="1">
          <mxGeometry relative="1" as="geometry">
            <mxPoint x="319" y="410" as="targetPoint" />
          </mxGeometry>
        </mxCell>
        <mxCell id="kgspyB9zmgdk_uMiAphP-12" value="Memory" style="rounded=1;whiteSpace=wrap;html=1;fillColor=#f8cecc;strokeColor=#b85450;" parent="1" vertex="1">
          <mxGeometry x="670" y="380" width="80" height="60" as="geometry" />
        </mxCell>
        <mxCell id="kgspyB9zmgdk_uMiAphP-14" style="edgeStyle=orthogonalEdgeStyle;rounded=0;orthogonalLoop=1;jettySize=auto;html=1;startArrow=classic;startFill=1;endArrow=none;" parent="1" source="kgspyB9zmgdk_uMiAphP-12" edge="1">
          <mxGeometry relative="1" as="geometry">
            <mxPoint x="602" y="410" as="targetPoint" />
          </mxGeometry>
        </mxCell>
        <mxCell id="kgspyB9zmgdk_uMiAphP-15" value="" style="group;fillColor=#dae8fc;strokeColor=#6c8ebf;" parent="1" vertex="1" connectable="0">
          <mxGeometry x="355" y="240" width="210" height="100" as="geometry" />
        </mxCell>
        <mxCell id="kgspyB9zmgdk_uMiAphP-2" value="&amp;nbsp;IOPMP" style="rounded=0;whiteSpace=wrap;html=1;align=left;verticalAlign=top;fillColor=#dae8fc;strokeColor=#6c8ebf;" parent="kgspyB9zmgdk_uMiAphP-15" vertex="1">
          <mxGeometry width="210" height="100" as="geometry" />
        </mxCell>
        <mxCell id="kgspyB9zmgdk_uMiAphP-3" value="&lt;font style=&quot;color: rgb(51, 0, 0);&quot;&gt;配置寄存器&lt;/font&gt;" style="rounded=0;whiteSpace=wrap;html=1;fillColor=#fff2cc;strokeColor=#d6b656;" parent="kgspyB9zmgdk_uMiAphP-15" vertex="1">
          <mxGeometry x="10" y="30" width="70" height="30" as="geometry" />
        </mxCell>
        <mxCell id="kgspyB9zmgdk_uMiAphP-4" value="&lt;font style=&quot;color: rgb(51, 0, 0);&quot;&gt;Entry寄存器&lt;/font&gt;" style="rounded=0;whiteSpace=wrap;html=1;fillColor=#fff2cc;strokeColor=#d6b656;" parent="kgspyB9zmgdk_uMiAphP-15" vertex="1">
          <mxGeometry x="10" y="60" width="70" height="30" as="geometry" />
        </mxCell>
        <mxCell id="kgspyB9zmgdk_uMiAphP-5" value="&lt;font style=&quot;color: rgb(51, 0, 0);&quot;&gt;IOPMPChecker&lt;/font&gt;" style="rounded=0;whiteSpace=wrap;html=1;fillColor=#f8cecc;strokeColor=#b85450;" parent="kgspyB9zmgdk_uMiAphP-15" vertex="1">
          <mxGeometry x="90" y="30" width="110" height="60" as="geometry" />
        </mxCell>
        <mxCell id="kgspyB9zmgdk_uMiAphP-21" style="edgeStyle=orthogonalEdgeStyle;rounded=0;orthogonalLoop=1;jettySize=auto;html=1;endArrow=open;endFill=0;" parent="1" source="kgspyB9zmgdk_uMiAphP-16" edge="1">
          <mxGeometry relative="1" as="geometry">
            <mxPoint x="326.19047619047615" y="377.4761904761905" as="targetPoint" />
          </mxGeometry>
        </mxCell>
        <mxCell id="kgspyB9zmgdk_uMiAphP-31" style="edgeStyle=orthogonalEdgeStyle;rounded=0;orthogonalLoop=1;jettySize=auto;html=1;exitX=0.75;exitY=1;exitDx=0;exitDy=0;startArrow=open;startFill=0;endArrow=none;" parent="1" source="kgspyB9zmgdk_uMiAphP-16" edge="1">
          <mxGeometry relative="1" as="geometry">
            <mxPoint x="554.5151515151515" y="366.8484848484849" as="targetPoint" />
          </mxGeometry>
        </mxCell>
        <mxCell id="kgspyB9zmgdk_uMiAphP-33" style="edgeStyle=orthogonalEdgeStyle;rounded=0;orthogonalLoop=1;jettySize=auto;html=1;exitX=0.25;exitY=1;exitDx=0;exitDy=0;startArrow=open;startFill=0;endArrow=none;" parent="1" source="kgspyB9zmgdk_uMiAphP-16" edge="1">
          <mxGeometry relative="1" as="geometry">
            <mxPoint x="554.5806451612902" y="388.48387096774195" as="targetPoint" />
          </mxGeometry>
        </mxCell>
        <mxCell id="kgspyB9zmgdk_uMiAphP-16" value="" style="shape=trapezoid;perimeter=trapezoidPerimeter;whiteSpace=wrap;html=1;fixedSize=1;rotation=-90;size=10;fillColor=#e1d5e7;strokeColor=#9673a6;" parent="1" vertex="1">
          <mxGeometry x="487.5" y="362.5" width="45" height="30" as="geometry" />
        </mxCell>
        <mxCell id="kgspyB9zmgdk_uMiAphP-17" style="edgeStyle=orthogonalEdgeStyle;rounded=0;orthogonalLoop=1;jettySize=auto;html=1;exitX=0.75;exitY=1;exitDx=0;exitDy=0;entryX=1;entryY=0.5;entryDx=0;entryDy=0;endArrow=open;endFill=0;" parent="1" source="kgspyB9zmgdk_uMiAphP-2" target="kgspyB9zmgdk_uMiAphP-16" edge="1">
          <mxGeometry relative="1" as="geometry" />
        </mxCell>
        <mxCell id="kgspyB9zmgdk_uMiAphP-23" style="edgeStyle=orthogonalEdgeStyle;rounded=0;orthogonalLoop=1;jettySize=auto;html=1;endArrow=open;endFill=0;" parent="1" source="kgspyB9zmgdk_uMiAphP-18" edge="1">
          <mxGeometry relative="1" as="geometry">
            <mxPoint x="593.4878048780488" y="422.04878048780495" as="targetPoint" />
          </mxGeometry>
        </mxCell>
        <mxCell id="kgspyB9zmgdk_uMiAphP-25" style="edgeStyle=orthogonalEdgeStyle;rounded=0;orthogonalLoop=1;jettySize=auto;html=1;exitX=0.25;exitY=1;exitDx=0;exitDy=0;startArrow=open;startFill=0;endArrow=none;" parent="1" source="kgspyB9zmgdk_uMiAphP-18" edge="1">
          <mxGeometry relative="1" as="geometry">
            <mxPoint x="370" y="410" as="targetPoint" />
          </mxGeometry>
        </mxCell>
        <mxCell id="kgspyB9zmgdk_uMiAphP-18" value="" style="shape=trapezoid;perimeter=trapezoidPerimeter;whiteSpace=wrap;html=1;fixedSize=1;rotation=90;size=13;fillColor=#e1d5e7;strokeColor=#9673a6;" parent="1" vertex="1">
          <mxGeometry x="382.25" y="407.75" width="49.5" height="30" as="geometry" />
        </mxCell>
        <mxCell id="kgspyB9zmgdk_uMiAphP-19" style="edgeStyle=orthogonalEdgeStyle;rounded=0;orthogonalLoop=1;jettySize=auto;html=1;exitX=0.25;exitY=1;exitDx=0;exitDy=0;entryX=0;entryY=0.5;entryDx=0;entryDy=0;endArrow=open;endFill=0;" parent="1" source="kgspyB9zmgdk_uMiAphP-2" target="kgspyB9zmgdk_uMiAphP-18" edge="1">
          <mxGeometry relative="1" as="geometry" />
        </mxCell>
        <mxCell id="kgspyB9zmgdk_uMiAphP-26" style="edgeStyle=orthogonalEdgeStyle;rounded=0;orthogonalLoop=1;jettySize=auto;html=1;exitX=0.25;exitY=1;exitDx=0;exitDy=0;startArrow=open;startFill=0;endArrow=none;" parent="1" edge="1">
          <mxGeometry relative="1" as="geometry">
            <mxPoint x="370" y="430" as="targetPoint" />
            <mxPoint x="392" y="430" as="sourcePoint" />
          </mxGeometry>
        </mxCell>
        <mxCell id="kgspyB9zmgdk_uMiAphP-28" value="&lt;font style=&quot;font-size: 10px;&quot;&gt;WSTRB&lt;/font&gt;" style="text;html=1;align=center;verticalAlign=middle;resizable=0;points=[];autosize=1;strokeColor=none;fillColor=none;" parent="1" vertex="1">
          <mxGeometry x="317.25" y="395" width="60" height="30" as="geometry" />
        </mxCell>
        <mxCell id="kgspyB9zmgdk_uMiAphP-30" value="&lt;font style=&quot;font-size: 10px;&quot;&gt;0&lt;/font&gt;" style="text;html=1;align=center;verticalAlign=middle;resizable=0;points=[];autosize=1;strokeColor=none;fillColor=none;" parent="1" vertex="1">
          <mxGeometry x="346" y="415" width="30" height="30" as="geometry" />
        </mxCell>
        <mxCell id="kgspyB9zmgdk_uMiAphP-34" value="&lt;font style=&quot;font-size: 10px;&quot;&gt;WDATA&lt;/font&gt;" style="text;html=1;align=center;verticalAlign=middle;resizable=0;points=[];autosize=1;strokeColor=none;fillColor=none;" parent="1" vertex="1">
          <mxGeometry x="546" y="351" width="60" height="30" as="geometry" />
        </mxCell>
        <mxCell id="kgspyB9zmgdk_uMiAphP-35" value="&lt;font style=&quot;font-size: 10px;&quot;&gt;0&lt;/font&gt;" style="text;html=1;align=center;verticalAlign=middle;resizable=0;points=[];autosize=1;strokeColor=none;fillColor=none;" parent="1" vertex="1">
          <mxGeometry x="548" y="372" width="30" height="30" as="geometry" />
        </mxCell>
        <mxCell id="kgspyB9zmgdk_uMiAphP-36" style="edgeStyle=orthogonalEdgeStyle;rounded=0;orthogonalLoop=1;jettySize=auto;html=1;startArrow=open;startFill=0;endArrow=none;" parent="1" edge="1">
          <mxGeometry relative="1" as="geometry">
            <mxPoint x="690" y="254" as="sourcePoint" />
            <mxPoint x="600" y="253.6" as="targetPoint" />
            <Array as="points">
              <mxPoint x="645" y="254" />
            </Array>
          </mxGeometry>
        </mxCell>
        <mxCell id="kgspyB9zmgdk_uMiAphP-37" value="中断信号线" style="text;html=1;align=center;verticalAlign=middle;resizable=0;points=[];autosize=1;strokeColor=none;fillColor=none;" parent="1" vertex="1">
          <mxGeometry x="600" y="224" width="80" height="30" as="geometry" />
        </mxCell>
        <mxCell id="kgspyB9zmgdk_uMiAphP-38" value="AXI" style="text;html=1;align=center;verticalAlign=middle;resizable=0;points=[];autosize=1;strokeColor=none;fillColor=none;" parent="1" vertex="1">
          <mxGeometry x="260" y="381" width="40" height="30" as="geometry" />
        </mxCell>
        <mxCell id="kgspyB9zmgdk_uMiAphP-40" value="AXI" style="text;html=1;align=center;verticalAlign=middle;resizable=0;points=[];autosize=1;strokeColor=none;fillColor=none;" parent="1" vertex="1">
          <mxGeometry x="260" y="224" width="40" height="30" as="geometry" />
        </mxCell>
        <mxCell id="kgspyB9zmgdk_uMiAphP-41" value="AXI" style="text;html=1;align=center;verticalAlign=middle;resizable=0;points=[];autosize=1;strokeColor=none;fillColor=none;" parent="1" vertex="1">
          <mxGeometry x="620" y="381" width="40" height="30" as="geometry" />
        </mxCell>
      </root>
    </mxGraphModel>
  </diagram>
</mxfile>
